<svg version="1.1" xmlns="http://www.w3.org/2000/svg" xmlns:xlink="http://www.w3.org/1999/xlink" width="972" height="852"><defs/><g><g transform="translate(-54,-174) scale(1,1)"><rect fill="#C0C0C0" stroke="none" x="311" y="191" width="712" height="832" opacity="0.2"/></g><g transform="translate(-54,-174) scale(1,1)"><rect fill="#ffffff" stroke="none" x="304" y="184" width="712" height="832"/></g><g transform="translate(-54,-174) scale(1,1)"><path fill="none" stroke="#000000" d="M 304 184 L 1016 184 L 1016 1016 L 304 1016 L 304 184 Z Z" stroke-miterlimit="10"/></g><g transform="translate(-54,-174) scale(1,1)"><g><path fill="none" stroke="none"/><text fill="#0c0604" stroke="none" font-family="Arial" font-size="13px" font-style="normal" font-weight="bold" text-decoration="none" x="558.8310546875" y="203.5">gestion de projets et de ressources</text></g></g><g transform="translate(-54,-174) scale(1,1)"><path fill="#ffffff" stroke="none" d="M 107.50114719460228 561.6800000000001 C 107.50114719460228 556.8861679360001 111.38698951954774 553 116.180419921875 553 C 120.97385032420226 553 124.85969264914772 556.8861679360001 124.85969264914772 561.6800000000001 C 124.85969264914772 566.473832064 120.97385032420226 570.36 116.180419921875 570.36 C 111.38698951954774 570.36 107.50114719460228 566.473832064 107.50114719460228 561.6800000000001 Z"/></g><g transform="translate(-54,-174) scale(1,1)"><path fill="none" stroke="#000000" d="M 107.50114719460228 561.6800000000001 C 107.50114719460228 556.8861679360001 111.38698951954774 553 116.180419921875 553 C 120.97385032420226 553 124.85969264914772 556.8861679360001 124.85969264914772 561.6800000000001 C 124.85969264914772 566.473832064 120.97385032420226 570.36 116.180419921875 570.36 C 111.38698951954774 570.36 107.50114719460228 566.473832064 107.50114719460228 561.6800000000001 Z" stroke-miterlimit="10"/></g><g transform="translate(-54,-174) scale(1,1)"><path fill="none" stroke="#000000" d="M 116.180419921875 570.36 L 116.180419921875 587.64" stroke-miterlimit="10"/></g><g transform="translate(-54,-174) scale(1,1)"><path fill="none" stroke="#000000" d="M 106.99060174005683 576.84 L 125.37023810369317 576.84" stroke-miterlimit="10"/></g><g transform="translate(-54,-174) scale(1,1)"><path fill="none" stroke="#000000" d="M 116.180419921875 587.64 L 103.41678355823865 605" stroke-miterlimit="10"/></g><g transform="translate(-54,-174) scale(1,1)"><path fill="none" stroke="#000000" d="M 116.180419921875 587.64 L 128.94405628551135 605" stroke-miterlimit="10"/></g><g transform="translate(-54,-174) scale(1,1)"><g><path fill="none" stroke="none"/><text fill="#000000" stroke="none" font-family="Arial" font-size="13px" font-style="normal" font-weight="bold" text-decoration="none" x="71.016845703125" y="625.5">Membre_squad</text></g></g><g transform="translate(-54,-174) scale(1,1)"><path fill="#ffffff" stroke="none" d="M 116.94206516335228 289.68 C 116.94206516335228 284.886167936 120.82790748829774 281 125.621337890625 281 C 130.41476829295226 281 134.30061061789772 284.886167936 134.30061061789772 289.68 C 134.30061061789772 294.473832064 130.41476829295226 298.36 125.621337890625 298.36 C 120.82790748829774 298.36 116.94206516335228 294.473832064 116.94206516335228 289.68 Z"/></g><g transform="translate(-54,-174) scale(1,1)"><path fill="none" stroke="#000000" d="M 116.94206516335228 289.68 C 116.94206516335228 284.886167936 120.82790748829774 281 125.621337890625 281 C 130.41476829295226 281 134.30061061789772 284.886167936 134.30061061789772 289.68 C 134.30061061789772 294.473832064 130.41476829295226 298.36 125.621337890625 298.36 C 120.82790748829774 298.36 116.94206516335228 294.473832064 116.94206516335228 289.68 Z" stroke-miterlimit="10"/></g><g transform="translate(-54,-174) scale(1,1)"><path fill="none" stroke="#000000" d="M 125.621337890625 298.36 L 125.621337890625 315.64" stroke-miterlimit="10"/></g><g transform="translate(-54,-174) scale(1,1)"><path fill="none" stroke="#000000" d="M 116.43151970880683 304.84 L 134.81115607244317 304.84" stroke-miterlimit="10"/></g><g transform="translate(-54,-174) scale(1,1)"><path fill="none" stroke="#000000" d="M 125.621337890625 315.64 L 112.85770152698865 333" stroke-miterlimit="10"/></g><g transform="translate(-54,-174) scale(1,1)"><path fill="none" stroke="#000000" d="M 125.621337890625 315.64 L 138.38497425426135 333" stroke-miterlimit="10"/></g><g transform="translate(-54,-174) scale(1,1)"><g><path fill="none" stroke="none"/><text fill="#000000" stroke="none" font-family="Arial" font-size="13px" font-style="normal" font-weight="bold" text-decoration="none" x="84.437744140625" y="353.5">administrateur</text></g></g><g transform="translate(-54,-174) scale(1,1)"><path fill="#C0C0C0" stroke="none" d="M 391 276 C 391 264.4020192 434.652232 255 488.5 255 C 542.347768 255 586 264.4020192 586 276 C 586 287.5979808 542.347768 297 488.5 297 C 434.652232 297 391 287.5979808 391 276 Z" opacity="0.2"/></g><g transform="translate(-54,-174) scale(1,1)"><path fill="#ffeaad" stroke="none" d="M 384 269 C 384 257.4020192 427.652232 248 481.5 248 C 535.347768 248 579 257.4020192 579 269 C 579 280.5979808 535.347768 290 481.5 290 C 427.652232 290 384 280.5979808 384 269 Z"/></g><g transform="translate(-54,-174) scale(1,1)"><path fill="none" stroke="#d8d800" d="M 384 269 C 384 257.4020192 427.652232 248 481.5 248 C 535.347768 248 579 257.4020192 579 269 C 579 280.5979808 535.347768 290 481.5 290 C 427.652232 290 384 280.5979808 384 269 Z" stroke-miterlimit="10"/></g><g transform="translate(-54,-174) scale(1,1)"><g><path fill="none" stroke="none"/><text fill="#000000" stroke="none" font-family="Arial" font-size="13px" font-style="normal" font-weight="bold" text-decoration="none" x="422.25732421875" y="276">Créer les utilisateurs</text></g></g><g transform="translate(-54,-174) scale(1,1)"><path fill="none" stroke="#000000" d="M 180 311 L 383 283" stroke-miterlimit="10"/></g><g transform="translate(-54,-174) scale(1,1)"><path fill="#C0C0C0" stroke="none" d="M 431 463 C 431 449.7451648 463.2354944 439 503 439 C 542.7645056 439 575 449.7451648 575 463 C 575 476.2548352 542.7645056 487 503 487 C 463.2354944 487 431 476.2548352 431 463 Z" opacity="0.2"/></g><g transform="translate(-54,-174) scale(1,1)"><path fill="#ffeaad" stroke="none" d="M 424 456 C 424 442.7451648 456.2354944 432 496 432 C 535.7645056 432 568 442.7451648 568 456 C 568 469.2548352 535.7645056 480 496 480 C 456.2354944 480 424 469.2548352 424 456 Z"/></g><g transform="translate(-54,-174) scale(1,1)"><path fill="none" stroke="#d8d800" d="M 424 456 C 424 442.7451648 456.2354944 432 496 432 C 535.7645056 432 568 442.7451648 568 456 C 568 469.2548352 535.7645056 480 496 480 C 456.2354944 480 424 469.2548352 424 456 Z" stroke-miterlimit="10"/></g><g transform="translate(-54,-174) scale(1,1)"><g><path fill="none" stroke="none"/><text fill="#000000" stroke="none" font-family="Arial" font-size="13px" font-style="normal" font-weight="bold" text-decoration="none" x="452.63916015625" y="463">créer un squad</text></g></g><g transform="translate(-54,-174) scale(1,1)"><path fill="#C0C0C0" stroke="none" d="M 367 551 C 367 537.7451648 429.68012799999997 527 507 527 C 584.319872 527 647 537.7451648 647 551 C 647 564.2548352 584.319872 575 507 575 C 429.68012799999997 575 367 564.2548352 367 551 Z" opacity="0.2"/></g><g transform="translate(-54,-174) scale(1,1)"><path fill="#ffeaad" stroke="none" d="M 360 544 C 360 530.7451648 422.68012799999997 520 500 520 C 577.319872 520 640 530.7451648 640 544 C 640 557.2548352 577.319872 568 500 568 C 422.68012799999997 568 360 557.2548352 360 544 Z"/></g><g transform="translate(-54,-174) scale(1,1)"><path fill="none" stroke="#d8d800" d="M 360 544 C 360 530.7451648 422.68012799999997 520 500 520 C 577.319872 520 640 530.7451648 640 544 C 640 557.2548352 577.319872 568 500 568 C 422.68012799999997 568 360 557.2548352 360 544 Z" stroke-miterlimit="10"/></g><g transform="translate(-54,-174) scale(1,1)"><g><path fill="none" stroke="none"/><text fill="#000000" stroke="none" font-family="Arial" font-size="13px" font-style="normal" font-weight="bold" text-decoration="none" x="411.84375" y="551">Ajouter les membres de squad</text></g></g><g transform="translate(-54,-174) scale(1,1)"><path fill="none" stroke="#000000" d="M 169 572 L 426 481" stroke-miterlimit="10"/></g><g transform="translate(-54,-174) scale(1,1)"><path fill="none" stroke="#000000" d="M 169 584 L 359 561" stroke-miterlimit="10"/></g><g transform="translate(-54,-174) scale(1,1)"><path fill="#ffffff" stroke="none" d="M 102.43889133522727 833.6800000000001 C 102.43889133522727 828.8861679360001 106.32473366017273 825 111.1181640625 825 C 115.91159446482727 825 119.79743678977273 828.8861679360001 119.79743678977273 833.6800000000001 C 119.79743678977273 838.473832064 115.91159446482727 842.36 111.1181640625 842.36 C 106.32473366017273 842.36 102.43889133522727 838.473832064 102.43889133522727 833.6800000000001 Z"/></g><g transform="translate(-54,-174) scale(1,1)"><path fill="none" stroke="#000000" d="M 102.43889133522727 833.6800000000001 C 102.43889133522727 828.8861679360001 106.32473366017273 825 111.1181640625 825 C 115.91159446482727 825 119.79743678977273 828.8861679360001 119.79743678977273 833.6800000000001 C 119.79743678977273 838.473832064 115.91159446482727 842.36 111.1181640625 842.36 C 106.32473366017273 842.36 102.43889133522727 838.473832064 102.43889133522727 833.6800000000001 Z" stroke-miterlimit="10"/></g><g transform="translate(-54,-174) scale(1,1)"><path fill="none" stroke="#000000" d="M 111.1181640625 842.36 L 111.1181640625 859.64" stroke-miterlimit="10"/></g><g transform="translate(-54,-174) scale(1,1)"><path fill="none" stroke="#000000" d="M 101.92834588068182 848.84 L 120.30798224431818 848.84" stroke-miterlimit="10"/></g><g transform="translate(-54,-174) scale(1,1)"><path fill="none" stroke="#000000" d="M 111.1181640625 859.64 L 98.35452769886363 877" stroke-miterlimit="10"/></g><g transform="translate(-54,-174) scale(1,1)"><path fill="none" stroke="#000000" d="M 111.1181640625 859.64 L 123.88180042613637 877" stroke-miterlimit="10"/></g><g transform="translate(-54,-174) scale(1,1)"><g><path fill="none" stroke="none"/><text fill="#000000" stroke="none" font-family="Arial" font-size="13px" font-style="normal" font-weight="bold" text-decoration="none" x="71.73095703125" y="897.5">chef de projet</text></g></g><g transform="translate(-54,-174) scale(1,1)"><path fill="#C0C0C0" stroke="none" d="M 375 819 C 375 807.954304 424.6963872 799 486 799 C 547.3036128 799 597 807.954304 597 819 C 597 830.045696 547.3036128 839 486 839 C 424.6963872 839 375 830.045696 375 819 Z" opacity="0.2"/></g><g transform="translate(-54,-174) scale(1,1)"><path fill="#ffeaad" stroke="none" d="M 368 812 C 368 800.954304 417.6963872 792 479 792 C 540.3036128 792 590 800.954304 590 812 C 590 823.045696 540.3036128 832 479 832 C 417.6963872 832 368 823.045696 368 812 Z"/></g><g transform="translate(-54,-174) scale(1,1)"><path fill="none" stroke="#d8d800" d="M 368 812 C 368 800.954304 417.6963872 792 479 792 C 540.3036128 792 590 800.954304 590 812 C 590 823.045696 540.3036128 832 479 832 C 417.6963872 832 368 823.045696 368 812 Z" stroke-miterlimit="10"/></g><g transform="translate(-54,-174) scale(1,1)"><g><path fill="none" stroke="none"/><text fill="#000000" stroke="none" font-family="Arial" font-size="13px" font-style="normal" font-weight="bold" text-decoration="none" x="410.34375" y="819">créer un nouveau projet</text></g></g><g transform="translate(-54,-174) scale(1,1)"><path fill="#C0C0C0" stroke="none" d="M 391 891 C 391 879.954304 436.2192352 871 492 871 C 547.7807648 871 593 879.954304 593 891 C 593 902.045696 547.7807648 911 492 911 C 436.2192352 911 391 902.045696 391 891 Z" opacity="0.2"/></g><g transform="translate(-54,-174) scale(1,1)"><path fill="#ffeaad" stroke="none" d="M 384 884 C 384 872.954304 429.2192352 864 485 864 C 540.7807648 864 586 872.954304 586 884 C 586 895.045696 540.7807648 904 485 904 C 429.2192352 904 384 895.045696 384 884 Z"/></g><g transform="translate(-54,-174) scale(1,1)"><path fill="none" stroke="#d8d800" d="M 384 884 C 384 872.954304 429.2192352 864 485 864 C 540.7807648 864 586 872.954304 586 884 C 586 895.045696 540.7807648 904 485 904 C 429.2192352 904 384 895.045696 384 884 Z" stroke-miterlimit="10"/></g><g transform="translate(-54,-174) scale(1,1)"><g><path fill="none" stroke="none"/><text fill="#000000" stroke="none" font-family="Arial" font-size="13px" font-style="normal" font-weight="bold" text-decoration="none" x="423.945068359375" y="891">voir la liste de projets</text></g></g><g transform="translate(-54,-174) scale(1,1)"><path fill="#C0C0C0" stroke="none" d="M 351 751 C 351 737.7451648 417.7095648 727 500 727 C 582.2904352 727 649 737.7451648 649 751 C 649 764.2548352 582.2904352 775 500 775 C 417.7095648 775 351 764.2548352 351 751 Z" opacity="0.2"/></g><g transform="translate(-54,-174) scale(1,1)"><path fill="#ffeaad" stroke="none" d="M 344 744 C 344 730.7451648 410.7095648 720 493 720 C 575.2904352 720 642 730.7451648 642 744 C 642 757.2548352 575.2904352 768 493 768 C 410.7095648 768 344 757.2548352 344 744 Z"/></g><g transform="translate(-54,-174) scale(1,1)"><path fill="none" stroke="#d8d800" d="M 344 744 C 344 730.7451648 410.7095648 720 493 720 C 575.2904352 720 642 730.7451648 642 744 C 642 757.2548352 575.2904352 768 493 768 C 410.7095648 768 344 757.2548352 344 744 Z" stroke-miterlimit="10"/></g><g transform="translate(-54,-174) scale(1,1)"><g><path fill="none" stroke="none"/><text fill="#000000" stroke="none" font-family="Arial" font-size="13px" font-style="normal" font-weight="bold" text-decoration="none" x="400.14013671875" y="751">Ajouter une nouvelle ressources</text></g></g><g transform="translate(-54,-174) scale(1,1)"><path fill="#C0C0C0" stroke="none" d="M 695 553 C 695 538.6405952 750.5166848 527 819 527 C 887.4833152 527 943 538.6405952 943 553 C 943 567.3594048 887.4833152 579 819 579 C 750.5166848 579 695 567.3594048 695 553 Z" opacity="0.2"/></g><g transform="translate(-54,-174) scale(1,1)"><path fill="#ffeaad" stroke="none" d="M 688 546 C 688 531.6405952 743.5166848 520 812 520 C 880.4833152 520 936 531.6405952 936 546 C 936 560.3594048 880.4833152 572 812 572 C 743.5166848 572 688 560.3594048 688 546 Z"/></g><g transform="translate(-54,-174) scale(1,1)"><path fill="none" stroke="#d8d800" d="M 688 546 C 688 531.6405952 743.5166848 520 812 520 C 880.4833152 520 936 531.6405952 936 546 C 936 560.3594048 880.4833152 572 812 572 C 743.5166848 572 688 560.3594048 688 546 Z" stroke-miterlimit="10"/></g><g transform="translate(-54,-174) scale(1,1)"><g><path fill="none" stroke="none"/><text fill="#000000" stroke="none" font-family="Arial" font-size="13px" font-style="normal" font-weight="bold" text-decoration="none" x="742.274169921875" y="546.5">pouvoir mettre à jour les</text><text fill="#000000" stroke="none" font-family="Arial" font-size="13px" font-style="normal" font-weight="bold" text-decoration="none" x="758.50830078125" y="559.5">données du squad</text></g></g><g transform="translate(-54,-174) scale(1,1)"><path fill="none" stroke="#000000" d="M 497 481 L 499 519" stroke-miterlimit="10" stroke-dasharray="3"/></g><g transform="translate(-54,-174) scale(1,1)"><path fill="none" stroke="#000000" d="M 494.2621621840279 509.07261903473307 L 499 519 L 502.66956115212656 508.63012435220156" stroke-miterlimit="10"/></g><g transform="translate(-54,-174) scale(1,1)"><g><path fill="none" stroke="none"/><text fill="#000000" stroke="none" font-family="Arial" font-size="13px" font-style="normal" font-weight="normal" text-decoration="none" x="510.5" y="508.5">«include»</text></g></g><g transform="translate(-54,-174) scale(1,1)"><path fill="#C0C0C0" stroke="none" d="M 375 362.5 C 375 342.8938896 441.2618496 327 523 327 C 604.7381504 327 671 342.8938896 671 362.5 C 671 382.1061104 604.7381504 398 523 398 C 441.2618496 398 375 382.1061104 375 362.5 Z" opacity="0.2"/></g><g transform="translate(-54,-174) scale(1,1)"><path fill="#ffeaad" stroke="none" d="M 368 355.5 C 368 335.8938896 434.2618496 320 516 320 C 597.7381504 320 664 335.8938896 664 355.5 C 664 375.1061104 597.7381504 391 516 391 C 434.2618496 391 368 375.1061104 368 355.5 Z"/></g><g transform="translate(-54,-174) scale(1,1)"><path fill="none" stroke="#d8d800" d="M 368 355.5 C 368 335.8938896 434.2618496 320 516 320 C 597.7381504 320 664 335.8938896 664 355.5 C 664 375.1061104 597.7381504 391 516 391 C 434.2618496 391 368 375.1061104 368 355.5 Z" stroke-miterlimit="10"/></g><g transform="translate(-54,-174) scale(1,1)"><g><path fill="none" stroke="none"/><text fill="#000000" stroke="none" font-family="Arial" font-size="13px" font-style="normal" font-weight="bold" text-decoration="none" x="423.86376953125" y="356">créer de nouvelles catégories et</text><text fill="#000000" stroke="none" font-family="Arial" font-size="13px" font-style="normal" font-weight="bold" text-decoration="none" x="470.115966796875" y="369">sous-catégories</text></g></g><g transform="translate(-54,-174) scale(1,1)"><path fill="none" stroke="#000000" d="M 180 324 L 367 341" stroke-miterlimit="10"/></g><g transform="translate(-54,-174) scale(1,1)"><path fill="none" stroke="#000000" d="M 159 856 L 367 828" stroke-miterlimit="10"/></g><g transform="translate(-54,-174) scale(1,1)"><path fill="#C0C0C0" stroke="none" d="M 631 281 C 631 266.6405952 700.8435712 255 787 255 C 873.1564288 255 943 266.6405952 943 281 C 943 295.3594048 873.1564288 307 787 307 C 700.8435712 307 631 295.3594048 631 281 Z" opacity="0.2"/></g><g transform="translate(-54,-174) scale(1,1)"><path fill="#ffeaad" stroke="none" d="M 624 274 C 624 259.6405952 693.8435712 248 780 248 C 866.1564288 248 936 259.6405952 936 274 C 936 288.3594048 866.1564288 300 780 300 C 693.8435712 300 624 288.3594048 624 274 Z"/></g><g transform="translate(-54,-174) scale(1,1)"><path fill="none" stroke="#d8d800" d="M 624 274 C 624 259.6405952 693.8435712 248 780 248 C 866.1564288 248 936 259.6405952 936 274 C 936 288.3594048 866.1564288 300 780 300 C 693.8435712 300 624 288.3594048 624 274 Z" stroke-miterlimit="10"/></g><g transform="translate(-54,-174) scale(1,1)"><g><path fill="none" stroke="none"/><text fill="#000000" stroke="none" font-family="Arial" font-size="13px" font-style="normal" font-weight="bold" text-decoration="none" x="683.5283203125" y="274.5">pouvoir mettre à jour les données</text><text fill="#000000" stroke="none" font-family="Arial" font-size="13px" font-style="normal" font-weight="bold" text-decoration="none" x="738.28955078125" y="287.5">d'un utilisateur</text></g></g><g transform="translate(-54,-174) scale(1,1)"><path fill="#C0C0C0" stroke="none" d="M 711 369 C 711 354.6405952 762.9349632 343 827 343 C 891.0650368 343 943 354.6405952 943 369 C 943 383.3594048 891.0650368 395 827 395 C 762.9349632 395 711 383.3594048 711 369 Z" opacity="0.2"/></g><g transform="translate(-54,-174) scale(1,1)"><path fill="#ffeaad" stroke="none" d="M 704 362 C 704 347.6405952 755.9349632 336 820 336 C 884.0650368 336 936 347.6405952 936 362 C 936 376.3594048 884.0650368 388 820 388 C 755.9349632 388 704 376.3594048 704 362 Z"/></g><g transform="translate(-54,-174) scale(1,1)"><path fill="none" stroke="#d8d800" d="M 704 362 C 704 347.6405952 755.9349632 336 820 336 C 884.0650368 336 936 347.6405952 936 362 C 936 376.3594048 884.0650368 388 820 388 C 755.9349632 388 704 376.3594048 704 362 Z" stroke-miterlimit="10"/></g><g transform="translate(-54,-174) scale(1,1)"><g><path fill="none" stroke="none"/><text fill="#000000" stroke="none" font-family="Arial" font-size="13px" font-style="normal" font-weight="bold" text-decoration="none" x="749.54736328125" y="362.5">Voir les catégories et les</text><text fill="#000000" stroke="none" font-family="Arial" font-size="13px" font-style="normal" font-weight="bold" text-decoration="none" x="777.365966796875" y="375.5">sous-catégorie</text></g></g><g transform="translate(-54,-174) scale(1,1)"><path fill="#C0C0C0" stroke="none" d="M 727 753 C 727 738.6405952 782.5166848 727 851 727 C 919.4833152 727 975 738.6405952 975 753 C 975 767.3594048 919.4833152 779 851 779 C 782.5166848 779 727 767.3594048 727 753 Z" opacity="0.2"/></g><g transform="translate(-54,-174) scale(1,1)"><path fill="#ffeaad" stroke="none" d="M 720 746 C 720 731.6405952 775.5166848 720 844 720 C 912.4833152 720 968 731.6405952 968 746 C 968 760.3594048 912.4833152 772 844 772 C 775.5166848 772 720 760.3594048 720 746 Z"/></g><g transform="translate(-54,-174) scale(1,1)"><path fill="none" stroke="#d8d800" d="M 720 746 C 720 731.6405952 775.5166848 720 844 720 C 912.4833152 720 968 731.6405952 968 746 C 968 760.3594048 912.4833152 772 844 772 C 775.5166848 772 720 760.3594048 720 746 Z" stroke-miterlimit="10"/></g><g transform="translate(-54,-174) scale(1,1)"><g><path fill="none" stroke="none"/><text fill="#000000" stroke="none" font-family="Arial" font-size="13px" font-style="normal" font-weight="bold" text-decoration="none" x="774.274169921875" y="746.5">pouvoir mettre à jour les</text><text fill="#000000" stroke="none" font-family="Arial" font-size="13px" font-style="normal" font-weight="bold" text-decoration="none" x="779.67919921875" y="759.5">données du ressource</text></g></g><g transform="translate(-54,-174) scale(1,1)"><path fill="#C0C0C0" stroke="none" d="M 375 977 C 375 962.6405952 428.725824 951 495 951 C 561.274176 951 615 962.6405952 615 977 C 615 991.3594048 561.274176 1003 495 1003 C 428.725824 1003 375 991.3594048 375 977 Z" opacity="0.2"/></g><g transform="translate(-54,-174) scale(1,1)"><path fill="#ffeaad" stroke="none" d="M 368 970 C 368 955.6405952 421.725824 944 488 944 C 554.274176 944 608 955.6405952 608 970 C 608 984.3594048 554.274176 996 488 996 C 421.725824 996 368 984.3594048 368 970 Z"/></g><g transform="translate(-54,-174) scale(1,1)"><path fill="none" stroke="#d8d800" d="M 368 970 C 368 955.6405952 421.725824 944 488 944 C 554.274176 944 608 955.6405952 608 970 C 608 984.3594048 554.274176 996 488 996 C 421.725824 996 368 984.3594048 368 970 Z" stroke-miterlimit="10"/></g><g transform="translate(-54,-174) scale(1,1)"><g><path fill="none" stroke="none"/><text fill="#000000" stroke="none" font-family="Arial" font-size="13px" font-style="normal" font-weight="bold" text-decoration="none" x="418.274169921875" y="970.5">pouvoir mettre à jour les</text><text fill="#000000" stroke="none" font-family="Arial" font-size="13px" font-style="normal" font-weight="bold" text-decoration="none" x="435.958740234375" y="983.5">données du projet</text></g></g><g transform="translate(-54,-174) scale(1,1)"><path fill="#C0C0C0" stroke="none" d="M 679 467 C 679 455.954304 732.2781088 447 798 447 C 863.7218912 447 917 455.954304 917 467 C 917 478.045696 863.7218912 487 798 487 C 732.2781088 487 679 478.045696 679 467 Z" opacity="0.2"/></g><g transform="translate(-54,-174) scale(1,1)"><path fill="#ffeaad" stroke="none" d="M 672 460 C 672 448.954304 725.2781088 440 791 440 C 856.7218912 440 910 448.954304 910 460 C 910 471.045696 856.7218912 480 791 480 C 725.2781088 480 672 471.045696 672 460 Z"/></g><g transform="translate(-54,-174) scale(1,1)"><path fill="none" stroke="#d8d800" d="M 672 460 C 672 448.954304 725.2781088 440 791 440 C 856.7218912 440 910 448.954304 910 460 C 910 471.045696 856.7218912 480 791 480 C 725.2781088 480 672 471.045696 672 460 Z" stroke-miterlimit="10"/></g><g transform="translate(-54,-174) scale(1,1)"><g><path fill="none" stroke="none"/><text fill="#000000" stroke="none" font-family="Arial" font-size="13px" font-style="normal" font-weight="bold" text-decoration="none" x="716.92919921875" y="467">spécifier le nom de squad</text></g></g><g transform="translate(-54,-174) scale(1,1)"><path fill="#C0C0C0" stroke="none" d="M 431 687 C 431 673.7451648 476.2192352 663 532 663 C 587.7807648 663 633 673.7451648 633 687 C 633 700.2548352 587.7807648 711 532 711 C 476.2192352 711 431 700.2548352 431 687 Z" opacity="0.2"/></g><g transform="translate(-54,-174) scale(1,1)"><path fill="#ffeaad" stroke="none" d="M 424 680 C 424 666.7451648 469.2192352 656 525 656 C 580.7807648 656 626 666.7451648 626 680 C 626 693.2548352 580.7807648 704 525 704 C 469.2192352 704 424 693.2548352 424 680 Z"/></g><g transform="translate(-54,-174) scale(1,1)"><path fill="none" stroke="#d8d800" d="M 424 680 C 424 666.7451648 469.2192352 656 525 656 C 580.7807648 656 626 666.7451648 626 680 C 626 693.2548352 580.7807648 704 525 704 C 469.2192352 704 424 693.2548352 424 680 Z" stroke-miterlimit="10"/></g><g transform="translate(-54,-174) scale(1,1)"><g><path fill="none" stroke="none"/><text fill="#000000" stroke="none" font-family="Arial" font-size="13px" font-style="normal" font-weight="bold" text-decoration="none" x="463.945068359375" y="687">voir la liste de projets</text></g></g><g transform="translate(-54,-174) scale(1,1)"><path fill="#C0C0C0" stroke="none" d="M 407 617 C 407 602.6405952 480.42529279999997 591 571 591 C 661.5747072 591 735 602.6405952 735 617 C 735 631.3594048 661.5747072 643 571 643 C 480.42529279999997 643 407 631.3594048 407 617 Z" opacity="0.2"/></g><g transform="translate(-54,-174) scale(1,1)"><path fill="#ffeaad" stroke="none" d="M 400 610 C 400 595.6405952 473.42529279999997 584 564 584 C 654.5747072 584 728 595.6405952 728 610 C 728 624.3594048 654.5747072 636 564 636 C 473.42529279999997 636 400 624.3594048 400 610 Z"/></g><g transform="translate(-54,-174) scale(1,1)"><path fill="none" stroke="#d8d800" d="M 400 610 C 400 595.6405952 473.42529279999997 584 564 584 C 654.5747072 584 728 595.6405952 728 610 C 728 624.3594048 654.5747072 636 564 636 C 473.42529279999997 636 400 624.3594048 400 610 Z" stroke-miterlimit="10"/></g><g transform="translate(-54,-174) scale(1,1)"><g><path fill="none" stroke="none"/><text fill="#000000" stroke="none" font-family="Arial" font-size="13px" font-style="normal" font-weight="bold" text-decoration="none" x="467.5283203125" y="610.5">pouvoir mettre à jour les données</text><text fill="#000000" stroke="none" font-family="Arial" font-size="13px" font-style="normal" font-weight="bold" text-decoration="none" x="522.28955078125" y="623.5">d'un utilisateur</text></g></g><g transform="translate(-54,-174) scale(1,1)"><path fill="none" stroke="#000000" d="M 169 593 L 399 603" stroke-miterlimit="10"/></g><g transform="translate(-54,-174) scale(1,1)"><path fill="none" stroke="#000000" d="M 169 603 L 423 658" stroke-miterlimit="10"/></g><g transform="translate(-54,-174) scale(1,1)"><path fill="none" stroke="#000000" d="M 169 603 L 423 658" stroke-miterlimit="10"/></g><g transform="translate(-54,-174) scale(1,1)"><path fill="none" stroke="#000000" d="M 169 613 L 431 719" stroke-miterlimit="10"/></g><g transform="translate(-54,-174) scale(1,1)"><path fill="none" stroke="#000000" d="M 159 866 L 383 878" stroke-miterlimit="10"/></g><g transform="translate(-54,-174) scale(1,1)"><path fill="none" stroke="#000000" d="M 159 877 L 393 943" stroke-miterlimit="10"/></g><g transform="translate(-54,-174) scale(1,1)"><path fill="none" stroke="#000000" d="M 623 271 L 580 271" stroke-miterlimit="10" stroke-dasharray="3"/></g><g transform="translate(-54,-174) scale(1,1)"><path fill="none" stroke="#000000" d="M 590.1626748576241 266.790482243984 L 580 271 L 590.1626748576241 275.209517756016" stroke-miterlimit="10"/></g><g transform="translate(-54,-174) scale(1,1)"><g><path fill="none" stroke="none"/><text fill="#000000" stroke="none" font-family="Arial" font-size="13px" font-style="normal" font-weight="normal" text-decoration="none" x="573.5" y="300.5">«extend»</text></g></g><g transform="translate(-54,-174) scale(1,1)"><path fill="none" stroke="#000000" d="M 703 359 L 665 358" stroke-miterlimit="10" stroke-dasharray="3"/></g><g transform="translate(-54,-174) scale(1,1)"><path fill="none" stroke="#000000" d="M 675.2698961978849 354.0592853332588 L 665 358 L 675.0484193071803 362.4754071800324" stroke-miterlimit="10"/></g><g transform="translate(-54,-174) scale(1,1)"><g><path fill="none" stroke="none"/><text fill="#000000" stroke="none" font-family="Arial" font-size="13px" font-style="normal" font-weight="normal" text-decoration="none" x="656.5" y="394.5">«extend»</text></g></g><g transform="translate(-54,-174) scale(1,1)"><path fill="none" stroke="#000000" d="M 687 545 L 641 545" stroke-miterlimit="10" stroke-dasharray="3"/></g><g transform="translate(-54,-174) scale(1,1)"><path fill="none" stroke="#000000" d="M 651.1626748576241 540.790482243984 L 641 545 L 651.1626748576241 549.209517756016" stroke-miterlimit="10"/></g><g transform="translate(-54,-174) scale(1,1)"><g><path fill="none" stroke="none"/><text fill="#000000" stroke="none" font-family="Arial" font-size="13px" font-style="normal" font-weight="normal" text-decoration="none" x="636.5" y="572.5">«extend»</text></g></g><g transform="translate(-54,-174) scale(1,1)"><path fill="none" stroke="#000000" d="M 719 745 L 643 745" stroke-miterlimit="10" stroke-dasharray="3"/></g><g transform="translate(-54,-174) scale(1,1)"><path fill="none" stroke="#000000" d="M 653.1626748576241 740.790482243984 L 643 745 L 653.1626748576241 749.209517756016" stroke-miterlimit="10"/></g><g transform="translate(-54,-174) scale(1,1)"><g><path fill="none" stroke="none"/><text fill="#000000" stroke="none" font-family="Arial" font-size="13px" font-style="normal" font-weight="normal" text-decoration="none" x="653.5" y="781.5">«extend»</text></g></g><g transform="translate(-54,-174) scale(1,1)"><path fill="none" stroke="#000000" d="M 487 943 L 486 905" stroke-miterlimit="10" stroke-dasharray="3"/></g><g transform="translate(-54,-174) scale(1,1)"><path fill="none" stroke="#000000" d="M 490.4754071800324 915.0484193071803 L 486 905 L 482.0592853332588 915.2698961978849" stroke-miterlimit="10"/></g><g transform="translate(-54,-174) scale(1,1)"><g><path fill="none" stroke="none"/><text fill="#000000" stroke="none" font-family="Arial" font-size="13px" font-style="normal" font-weight="normal" text-decoration="none" x="406.5" y="929.5">«extend»</text></g></g><g transform="translate(-54,-174) scale(1,1)"><path fill="none" stroke="#000000" d="M 483 863 L 481 833" stroke-miterlimit="10" stroke-dasharray="3"/></g><g transform="translate(-54,-174) scale(1,1)"><path fill="none" stroke="#000000" d="M 485.8762054144906 842.8601531811474 L 481 833 L 477.4758167371174 843.4201790929724" stroke-miterlimit="10"/></g><g transform="translate(-54,-174) scale(1,1)"><g><path fill="none" stroke="none"/><text fill="#000000" stroke="none" font-family="Arial" font-size="13px" font-style="normal" font-weight="normal" text-decoration="none" x="415.5" y="855.5">«extend»</text></g></g><g transform="translate(-54,-174) scale(1,1)"><path fill="none" stroke="#000000" d="M 671 458 L 569 457" stroke-miterlimit="10" stroke-dasharray="3"/></g><g transform="translate(-54,-174) scale(1,1)"><path fill="none" stroke="#000000" d="M 579.2034542892421 452.8903138115732 L 569 457 L 579.1209186918354 461.3089447470648" stroke-miterlimit="10"/></g><g transform="translate(-54,-174) scale(1,1)"><g><path fill="none" stroke="none"/><text fill="#000000" stroke="none" font-family="Arial" font-size="13px" font-style="normal" font-weight="normal" text-decoration="none" x="599.5" y="475.5">«extend»</text></g></g></g></svg>