<svg width="39" height="39" viewBox="0 0 39 39" fill="none" xmlns="http://www.w3.org/2000/svg">
<path d="M0.5 5C0.5 2.51472 2.51472 0.5 5 0.5H34C36.4853 0.5 38.5 2.51472 38.5 5V34C38.5 36.4853 36.4853 38.5 34 38.5H5C2.51472 38.5 0.5 36.4853 0.5 34V5Z" fill="white" stroke="#EAEAEA"/>
<path d="M26.6448 18.4786C27.3325 18.4786 27.8483 18.9943 27.8483 19.682C27.8483 20.0258 27.7193 20.3267 27.5044 20.5416C27.2895 20.7565 26.9886 20.8855 26.6448 20.8855L20.8855 20.8855L20.8855 26.6448C20.8855 26.9886 20.7565 27.2895 20.5416 27.5044C20.3267 27.7193 20.0258 27.8483 19.682 27.8483C18.9943 27.8483 18.4786 27.3325 18.4786 26.6448L18.4786 20.8855L12.7192 20.8855C12.0315 20.8855 11.5158 20.3697 11.5158 19.682C11.5158 18.9943 12.0315 18.4786 12.7192 18.4786L18.4786 18.4786L18.4786 12.7192C18.4786 12.0315 18.9943 11.5158 19.682 11.5158C20.3697 11.5158 20.8855 12.0315 20.8855 12.7192L20.8855 18.4786L26.6448 18.4786Z" fill="#959595"/>
</svg>
