<svg width="26" height="26" viewBox="0 0 26 26" fill="none" xmlns="http://www.w3.org/2000/svg">
<path d="M10.5 0.15625C7.48302 0.15625 5.06202 2.22825 5.06202 6.18825C5.06202 8.77425 6.09202 11.4082 7.65602 13.0312C8.26602 14.6543 7.16602 15.2582 6.93802 15.3442C3.78102 16.5022 0.0930176 18.6022 0.0930176 20.6882V21.4683C0.0930176 24.3113 5.50702 24.9683 10.53 24.9683C11.6248 24.9664 12.7192 24.9251 13.811 24.8442C12.4439 23.4012 11.6835 21.4881 11.687 19.5002C11.687 17.7092 12.297 16.0682 13.311 14.7502C13.161 14.3982 13.101 13.8432 13.374 13.0002C14.929 11.3752 15.937 8.76425 15.937 6.18725C15.937 2.22825 13.513 0.15725 10.499 0.15725L10.5 0.15625ZM19.5 13.1873C17.8258 13.1873 16.2202 13.8523 15.0364 15.0361C13.8526 16.22 13.1875 17.8256 13.1875 19.4998C13.1875 21.1739 13.8526 22.7795 15.0364 23.9634C16.2202 25.1472 17.8258 25.8123 19.5 25.8123C21.1742 25.8123 22.7798 25.1472 23.9636 23.9634C25.1475 22.7795 25.8125 21.1739 25.8125 19.4998C25.8125 17.8256 25.1475 16.22 23.9636 15.0361C22.7798 13.8523 21.1742 13.1873 19.5 13.1873ZM18.625 16.0002H20.375V18.5942H22.969V20.4062H20.375V23.0002H18.625V20.4062H16V18.5942H18.625V16.0002Z" fill="#545454"/>
</svg>
